<svg width="40" height="40" viewBox="0 0 40 40" fill="none" xmlns="http://www.w3.org/2000/svg">
<path d="M12.7458 29.0616L19.5343 30.7585L23.6829 28.6842L26.324 29.4961L26.5115 26.4214V9.63872C24.6258 8.69586 20.3281 7.40037 18.2143 7.7527C12.5571 8.69563 10.6714 13.5985 10.1058 16.0502L12.7458 17.3702C12.3686 17.2445 10.3348 20.3291 10.1058 22.0845C9.54001 26.4214 11.3629 28.4331 12.7458 29.0616Z" fill="url(#paint0_linear_12385_370210)"/>
<path fill-rule="evenodd" clip-rule="evenodd" d="M15.5742 17.5588L19.5342 16.8043C19.8485 15.6101 21.0051 13.1838 23.1171 13.0329C25.7571 12.8443 26.5114 15.2958 26.5114 16.8043C22.8657 16.8044 15.5742 18.6902 15.5742 25.4788C15.5742 33.3989 25.3799 31.136 26.5114 26.6101V29.2502L30 28.3073V16.6156C30 12.4671 28.2085 8.51433 22.3628 9.63866C17.46 10.5816 15.5742 15.4845 15.5742 17.5588ZM26.5115 20.0101C24.3114 20.1358 19.7228 21.5187 19.1572 24.1587C18.3513 27.9195 23.3056 26.7988 24.4372 25.6673C25.8854 24.2191 26.5115 22.6501 26.5115 20.0101Z" fill="white"/>
<path d="M19.5342 16.8043L19.5862 17.0772L19.7583 17.0444L19.8029 16.875L19.5342 16.8043ZM15.5742 17.5588H15.2964V17.8945L15.6262 17.8317L15.5742 17.5588ZM23.1171 13.0329L23.0973 12.7558L23.1171 13.0329ZM26.5114 16.8043L26.5114 17.0821L26.7892 17.0821V16.8043H26.5114ZM26.5114 26.6101H26.7892L26.2419 26.5427L26.5114 26.6101ZM26.5114 29.2502H26.2336V29.6131L26.5839 29.5184L26.5114 29.2502ZM30 28.3073L30.0724 28.5754L30.2777 28.5199V28.3073H30ZM22.3628 9.63866L22.4153 9.91144L22.3628 9.63866ZM19.1572 24.1587L18.8855 24.1005L19.1572 24.1587ZM26.5115 20.0101H26.7892V19.716L26.4956 19.7328L26.5115 20.0101ZM24.4372 25.6673L24.2407 25.4709H24.2407L24.4372 25.6673ZM19.4822 16.5315L15.5222 17.2859L15.6262 17.8317L19.5862 17.0772L19.4822 16.5315ZM23.0973 12.7558C21.9315 12.8391 21.0493 13.5498 20.4309 14.3586C19.8121 15.1678 19.4302 16.108 19.2656 16.7337L19.8029 16.875C19.9525 16.3064 20.3061 15.4363 20.8722 14.6961C21.4385 13.9554 22.1907 13.3776 23.1369 13.31L23.0973 12.7558ZM26.7892 16.8043C26.7892 16.0136 26.5932 14.9648 26.0354 14.1281C25.4658 13.2738 24.5248 12.6539 23.0973 12.7558L23.1369 13.31C24.3494 13.2234 25.1055 13.7349 25.5731 14.4363C26.0525 15.1553 26.2336 16.0865 26.2336 16.8043H26.7892ZM15.852 25.4788C15.852 22.2066 17.6001 20.1193 19.8149 18.8362C22.0417 17.5462 24.7251 17.0821 26.5114 17.0821L26.5114 16.5266C24.6519 16.5266 21.8668 17.0055 19.5364 18.3555C17.1941 19.7125 15.2964 21.9624 15.2964 25.4788H15.852ZM26.2419 26.5427C25.9805 27.5884 25.2103 28.5268 24.1702 29.2259C23.1317 29.9239 21.848 30.3664 20.6034 30.4343C19.3589 30.5022 18.1766 30.1954 17.3083 29.4255C16.4446 28.6595 15.852 27.3999 15.852 25.4788H15.2964C15.2964 27.5178 15.9296 28.9453 16.9397 29.8412C17.9455 30.733 19.2853 31.0626 20.6336 30.9891C21.9819 30.9155 23.3617 30.4387 24.4801 29.687C25.5967 28.9365 26.4765 27.8948 26.7809 26.6775L26.2419 26.5427ZM26.7892 29.2502V26.6101H26.2336V29.2502H26.7892ZM29.9275 28.0391L26.4389 28.9821L26.5839 29.5184L30.0724 28.5754L29.9275 28.0391ZM29.7222 16.6156V28.3073H30.2777V16.6156H29.7222ZM22.4153 9.91144C25.2677 9.36283 27.0658 10.0592 28.1632 11.3313C29.2787 12.6244 29.7222 14.5702 29.7222 16.6156H30.2777C30.2777 14.5125 29.8255 12.4077 28.5839 10.9684C27.3241 9.50807 25.3037 8.79016 22.3103 9.36588L22.4153 9.91144ZM15.852 17.5588C15.852 16.5854 16.3019 14.8944 17.36 13.3301C18.4128 11.7738 20.0518 10.366 22.4153 9.91144L22.3103 9.36588C19.7709 9.8543 18.0156 11.3694 16.8999 13.0188C15.7894 14.6603 15.2964 16.4579 15.2964 17.5588H15.852ZM19.4288 24.2169C19.6823 23.0338 20.8596 22.0784 22.3382 21.3936C23.7998 20.7167 25.4628 20.3483 26.5273 20.2875L26.4956 19.7328C25.3601 19.7977 23.6288 20.1836 22.1047 20.8895C20.5975 21.5876 19.1977 22.6436 18.8855 24.1005L19.4288 24.2169ZM24.2407 25.4709C24.0017 25.7099 23.5264 25.975 22.9329 26.1745C22.346 26.3718 21.6799 26.4927 21.0812 26.47C20.477 26.4471 19.986 26.2808 19.6887 25.9534C19.4007 25.6362 19.2385 25.1047 19.4288 24.2169L18.8855 24.1005C18.6729 25.0931 18.8278 25.8318 19.2774 26.3269C19.7178 26.8117 20.385 26.9996 21.0601 27.0252C21.7407 27.051 22.4749 26.9146 23.11 26.7011C23.7385 26.4898 24.3069 26.1904 24.6336 25.8637L24.2407 25.4709ZM26.2337 20.0101C26.2337 21.309 26.0795 22.3258 25.7572 23.1884C25.4359 24.0482 24.9418 24.7698 24.2407 25.4709L24.6336 25.8637C25.3807 25.1166 25.9238 24.3296 26.2776 23.3829C26.6303 22.4389 26.7892 21.3513 26.7892 20.0101H26.2337Z" fill="black"/>
<defs>
<linearGradient id="paint0_linear_12385_370210" x1="18.2558" y1="7.69348" x2="18.2558" y2="30.7585" gradientUnits="userSpaceOnUse">
<stop/>
<stop offset="1"/>
</linearGradient>
</defs>
</svg>
