<svg width="40" height="40" viewBox="0 0 40 40" fill="none" xmlns="http://www.w3.org/2000/svg">
<path d="M15.5992 15L20.3726 27.2857C20.5552 27.7683 20.7639 28.0944 20.9986 28.2639C21.2464 28.4335 21.4747 28.5247 21.6833 28.5378V28.9291C21.3703 28.903 20.9986 28.8899 20.5682 28.8899C20.1509 28.8769 19.727 28.8704 19.2966 28.8704C18.7488 28.8704 18.2402 28.8769 17.7707 28.8899C17.3012 28.8899 16.9229 28.903 16.636 28.9291V28.5378C17.3012 28.5117 17.7185 28.4008 17.8881 28.2052C18.0707 27.9965 18.0315 27.5596 17.7707 26.8945L14.2493 17.3867L14.5623 17.0346L11.3148 25.525C11.08 26.1119 10.9366 26.601 10.8844 26.9923C10.8453 27.3836 10.8779 27.69 10.9822 27.9118C11.0996 28.1335 11.2952 28.29 11.5691 28.3813C11.843 28.4726 12.1821 28.5247 12.5864 28.5378V28.9291C12.1951 28.903 11.7974 28.8899 11.3931 28.8899C11.0018 28.8769 10.6301 28.8704 10.2779 28.8704C9.96493 28.8704 9.68453 28.8769 9.43673 28.8899C9.20197 28.8899 8.98677 28.903 8.79114 28.9291V28.5378C9.06502 28.4726 9.33891 28.3096 9.6128 28.0487C9.88668 27.7879 10.1475 27.3444 10.3953 26.7184L14.934 15C15.0383 15 15.1492 15 15.2666 15C15.384 15 15.4948 15 15.5992 15ZM17.6533 23.2948V23.6861H11.8234L12.0191 23.2948H17.6533Z" fill="#222529"/>
<path d="M24.8252 29.066C24.2775 29.066 23.8079 28.9617 23.4167 28.753C23.0254 28.5443 22.732 28.2574 22.5363 27.8922C22.3407 27.527 22.2429 27.1097 22.2429 26.6402C22.2429 26.0663 22.3733 25.6033 22.6341 25.2512C22.895 24.886 23.2276 24.5925 23.6319 24.3708C24.0492 24.1491 24.4861 23.9665 24.9426 23.823C25.4121 23.6665 25.849 23.5231 26.2534 23.3926C26.6707 23.2492 27.0098 23.0862 27.2706 22.9036C27.5445 22.721 27.6815 22.4797 27.6815 22.1797V20.8494C27.6815 20.3799 27.6032 20.0082 27.4467 19.7343C27.3033 19.4474 27.1011 19.2452 26.8403 19.1279C26.5925 19.0105 26.2925 18.9518 25.9403 18.9518C25.6404 18.9518 25.3208 18.9974 24.9817 19.0887C24.6426 19.167 24.3753 19.33 24.1796 19.5778C24.4666 19.6561 24.7013 19.8126 24.8839 20.0473C25.0796 20.269 25.1774 20.5495 25.1774 20.8885C25.1774 21.2537 25.0535 21.5407 24.8057 21.7493C24.5709 21.958 24.2709 22.0623 23.9058 22.0623C23.5015 22.0623 23.2015 21.9384 23.0058 21.6906C22.8102 21.4298 22.7124 21.1298 22.7124 20.7907C22.7124 20.4386 22.7972 20.1517 22.9667 19.9299C23.1493 19.7082 23.3841 19.4996 23.671 19.3039C23.984 19.0952 24.3818 18.9192 24.8644 18.7757C25.36 18.6322 25.9077 18.5605 26.5077 18.5605C27.0685 18.5605 27.5511 18.6257 27.9554 18.7561C28.3727 18.8735 28.7183 19.0692 28.9922 19.343C29.3183 19.643 29.5335 20.0212 29.6378 20.4777C29.7421 20.9212 29.7943 21.4624 29.7943 22.1015V27.5009C29.7943 27.827 29.8334 28.0618 29.9117 28.2052C30.003 28.3356 30.1464 28.4008 30.3421 28.4008C30.4725 28.4008 30.5964 28.3682 30.7138 28.303C30.8442 28.2378 30.9942 28.14 31.1637 28.0096L31.3594 28.3422C31.0855 28.5639 30.8051 28.7399 30.5182 28.8704C30.2443 29.0008 29.8921 29.066 29.4617 29.066C29.0444 29.066 28.7053 29.0008 28.4444 28.8704C28.1836 28.7399 27.988 28.5508 27.8575 28.303C27.7402 28.0552 27.6815 27.7487 27.6815 27.3836C27.3424 27.9313 26.9381 28.3487 26.4685 28.6356C25.999 28.9225 25.4513 29.066 24.8252 29.066ZM25.7643 28.127C26.1295 28.127 26.4685 28.0226 26.7816 27.8139C27.1076 27.6053 27.4076 27.2923 27.6815 26.8749V22.9818C27.538 23.1905 27.3293 23.3731 27.0554 23.5296C26.7816 23.6731 26.4881 23.823 26.1751 23.9795C25.8621 24.1361 25.5621 24.3186 25.2752 24.5273C25.0013 24.723 24.7731 24.9773 24.5905 25.2903C24.4079 25.6033 24.3166 26.0011 24.3166 26.4836C24.3166 26.9923 24.447 27.3966 24.7079 27.6966C24.9687 27.9835 25.3208 28.127 25.7643 28.127Z" fill="#222529"/>
</svg>
