<svg width="40" height="40" viewBox="0 0 40 40" fill="none" xmlns="http://www.w3.org/2000/svg">
<path d="M16.8722 28.744V28.271C17.4083 28.2395 17.8103 28.1764 18.0784 28.0818C18.3464 27.9872 18.5198 27.798 18.5986 27.5142C18.6932 27.2304 18.7405 26.8047 18.7405 26.2371V14.5069C18.7405 13.9235 18.6932 13.4978 18.5986 13.2298C18.5198 12.946 18.3385 12.7568 18.0547 12.6622C17.7867 12.5518 17.3925 12.4888 16.8722 12.473V12C17.2664 12.0158 17.7551 12.0315 18.3385 12.0473C18.9376 12.0631 19.5289 12.0709 20.1122 12.0709C20.7744 12.0709 21.3893 12.0631 21.9569 12.0473C22.5245 12.0315 22.9817 12.0158 23.3286 12V12.473C22.8083 12.4888 22.4141 12.5518 22.1461 12.6622C21.8781 12.7568 21.6968 12.946 21.6022 13.2298C21.5076 13.4978 21.4603 13.9235 21.4603 14.5069V26.2371C21.4603 26.8047 21.5076 27.2304 21.6022 27.5142C21.6968 27.798 21.8781 27.9872 22.1461 28.0818C22.4141 28.1764 22.8083 28.2395 23.3286 28.271V28.744C22.9817 28.7125 22.5245 28.6967 21.9569 28.6967C21.3893 28.6809 20.7744 28.673 20.1122 28.673C19.5289 28.673 18.9376 28.6809 18.3385 28.6967C17.7551 28.6967 17.2664 28.7125 16.8722 28.744ZM6.93933 28.744V28.271C7.47539 28.2395 7.87744 28.1764 8.14547 28.0818C8.4135 27.9872 8.58693 27.798 8.66576 27.5142C8.76036 27.2304 8.80766 26.8047 8.80766 26.2371V14.5069C8.80766 13.9235 8.76036 13.4978 8.66576 13.2298C8.58693 12.946 8.40561 12.7568 8.12182 12.6622C7.85379 12.5518 7.45962 12.4888 6.93933 12.473V12C7.30196 12.0158 7.76707 12.0315 8.33466 12.0473C8.91802 12.0631 9.5408 12.0709 10.203 12.0709C10.8021 12.0709 11.3855 12.0631 11.9531 12.0473C12.5364 12.0315 13.0173 12.0158 13.3957 12V12.473C12.8754 12.4888 12.4812 12.5518 12.2132 12.6622C11.9452 12.7568 11.7639 12.946 11.6693 13.2298C11.5747 13.4978 11.5274 13.9235 11.5274 14.5069V26.2371C11.5274 26.8047 11.5747 27.2304 11.6693 27.5142C11.7639 27.798 11.9452 27.9872 12.2132 28.0818C12.4812 28.1764 12.8754 28.2395 13.3957 28.271V28.744C13.0173 28.7125 12.5364 28.6967 11.9531 28.6967C11.3855 28.6809 10.8021 28.673 10.203 28.673C9.5408 28.673 8.91802 28.6809 8.33466 28.6967C7.76707 28.6967 7.30196 28.7125 6.93933 28.744ZM10.4631 20.5612V20.0882H19.8048V20.5612H10.4631Z" fill="#222529"/>
<path d="M30.4823 16.2806V26.3554C30.4823 27.0964 30.6399 27.6009 30.9552 27.869C31.2706 28.1212 31.8066 28.2474 32.5634 28.2474V28.744C32.2481 28.7282 31.783 28.7125 31.1681 28.6967C30.569 28.6652 29.9462 28.6494 29.2998 28.6494C28.543 28.6494 27.8177 28.6652 27.124 28.6967C26.4303 28.7125 25.8942 28.7282 25.5158 28.744V28.2474C26.2726 28.2474 26.8638 28.1212 27.2895 27.869C27.7152 27.6009 27.9281 27.0806 27.9281 26.3081V20.5612C27.9281 19.8044 27.8493 19.2447 27.6916 18.8821C27.5497 18.5194 27.2817 18.2829 26.8875 18.1726C26.5091 18.0622 25.9888 18.007 25.3266 18.007V17.4867C26.5249 17.4552 27.526 17.3527 28.3301 17.1793C29.1342 17.0059 29.8516 16.7063 30.4823 16.2806Z" fill="#222529"/>
</svg>
