<svg width="40" height="40" viewBox="0 0 40 40" fill="none" xmlns="http://www.w3.org/2000/svg">
<path d="M16.9193 28.884V28.4917C17.3638 28.4656 17.6972 28.4133 17.9195 28.3349C18.1417 28.2564 18.2855 28.0995 18.3509 27.8642C18.4293 27.6289 18.4685 27.2759 18.4685 26.8053V17.0787C18.4685 16.595 18.4293 16.242 18.3509 16.0197C18.2855 15.7844 18.1352 15.6275 17.8999 15.5491C17.6776 15.4576 17.3508 15.4053 16.9193 15.3922V15C17.2462 15.0131 17.6515 15.0261 18.1352 15.0392C18.632 15.0523 19.1222 15.0588 19.6059 15.0588C20.155 15.0588 20.6649 15.0523 21.1355 15.0392C21.6062 15.0261 21.9853 15.0131 22.2729 15V15.3922C21.8415 15.4053 21.5146 15.4576 21.2924 15.5491C21.0702 15.6275 20.9198 15.7844 20.8414 16.0197C20.7629 16.242 20.7237 16.595 20.7237 17.0787V26.8053C20.7237 27.2759 20.7629 27.6289 20.8414 27.8642C20.9198 28.0995 21.0702 28.2564 21.2924 28.3349C21.5146 28.4133 21.8415 28.4656 22.2729 28.4917V28.884C21.9853 28.8578 21.6062 28.8447 21.1355 28.8447C20.6649 28.8317 20.155 28.8251 19.6059 28.8251C19.1222 28.8251 18.632 28.8317 18.1352 28.8447C17.6515 28.8447 17.2462 28.8578 16.9193 28.884ZM8.68311 28.884V28.4917C9.1276 28.4656 9.46097 28.4133 9.68322 28.3349C9.90547 28.2564 10.0493 28.0995 10.1146 27.8642C10.1931 27.6289 10.2323 27.2759 10.2323 26.8053V17.0787C10.2323 16.595 10.1931 16.242 10.1146 16.0197C10.0493 15.7844 9.89893 15.6275 9.66361 15.5491C9.44136 15.4576 9.11453 15.4053 8.68311 15.3922V15C8.98379 15.0131 9.36946 15.0261 9.8401 15.0392C10.3238 15.0523 10.8402 15.0588 11.3893 15.0588C11.8861 15.0588 12.3698 15.0523 12.8404 15.0392C13.3242 15.0261 13.7229 15.0131 14.0367 15V15.3922C13.6052 15.4053 13.2784 15.4576 13.0562 15.5491C12.8339 15.6275 12.6836 15.7844 12.6051 16.0197C12.5267 16.242 12.4875 16.595 12.4875 17.0787V26.8053C12.4875 27.2759 12.5267 27.6289 12.6051 27.8642C12.6836 28.0995 12.8339 28.2564 13.0562 28.3349C13.2784 28.4133 13.6052 28.4656 14.0367 28.4917V28.884C13.7229 28.8578 13.3242 28.8447 12.8404 28.8447C12.3698 28.8317 11.8861 28.8251 11.3893 28.8251C10.8402 28.8251 10.3238 28.8317 9.8401 28.8447C9.36946 28.8447 8.98379 28.8578 8.68311 28.884ZM11.605 22.0989V21.7067H19.351V22.0989H11.605Z" fill="#222529"/>
<path d="M28.0282 18.4906C28.9694 18.4906 29.7146 18.7063 30.2637 19.1377C30.8128 19.5692 31.0873 20.1836 31.0873 20.9811C31.0873 21.4909 30.9631 21.9747 30.7147 22.4322C30.4664 22.8767 30.1395 23.3016 29.7342 23.7069C29.342 24.1122 28.9172 24.5044 28.4596 24.8835C28.002 25.2626 27.5575 25.6352 27.1261 26.0013C26.7077 26.3542 26.3482 26.7203 26.0475 27.0994H30.1264C30.6625 27.0994 31.0024 27.0275 31.1462 26.8837C31.29 26.7399 31.388 26.4915 31.4403 26.1385H31.7933C31.7933 26.8968 31.7998 27.4786 31.8129 27.8838C31.826 28.2891 31.8456 28.6552 31.8717 28.982C31.7541 28.9559 31.5384 28.9362 31.2246 28.9232C30.9108 28.9101 30.5513 28.897 30.1461 28.884C29.7408 28.884 29.342 28.884 28.9498 28.884H23.9885V28.531C24.3676 28.1126 24.8317 27.6616 25.3808 27.1779C25.9299 26.6942 26.4594 26.1647 26.9692 25.5895C27.4922 25.0142 27.9236 24.3867 28.2635 23.7069C28.6165 23.014 28.793 22.2688 28.793 21.4713C28.793 20.7392 28.623 20.2097 28.2831 19.8829C27.9563 19.5561 27.4856 19.3927 26.8712 19.3927C26.3352 19.3927 25.8449 19.543 25.4004 19.8437C24.969 20.1313 24.5833 20.5627 24.2434 21.138L23.9297 20.9419C24.1519 20.5235 24.4395 20.1313 24.7925 19.7653C25.1455 19.3861 25.5834 19.0789 26.1064 18.8436C26.6424 18.6083 27.283 18.4906 28.0282 18.4906Z" fill="#222529"/>
</svg>
