<svg width="15" height="92" viewBox="0 0 15 92" fill="none" xmlns="http://www.w3.org/2000/svg">
<path d="M2 92L2 0H3C3 3.77087 4.42026 7.40332 6.97794 10.1742L10.4917 13.9807C13.3904 17.121 15 21.2378 15 25.5115V66.626C15 71.0146 13.3028 75.2332 10.2636 78.399L7.1792 81.6119C4.4975 84.4054 3 88.1277 3 92H2Z" fill="white"/>
<path d="M2 92H3C3 88.1277 4.4975 84.4054 7.17919 81.612L10.2636 78.3991C13.3028 75.2332 15 71.0147 15 66.6261V25.5115C15 21.2379 13.3904 17.121 10.4917 13.9807L6.97795 10.1742C4.42026 7.40337 3 3.77085 3 0H2C2 1.91731 2.34422 3.80108 3 5.56777C3.71995 7.50734 4.81541 9.30577 6.24314 10.8525L9.75686 14.659C12.4851 17.6146 14 21.4892 14 25.5115V66.6261C14 70.7565 12.4027 74.7269 9.5422 77.7066L6.4578 80.9195C4.92573 82.5154 3.75601 84.3955 3 86.4322C2.34449 88.1982 2 90.0818 2 92Z" fill="black" fill-opacity="0.08"/>
<path fill-rule="evenodd" clip-rule="evenodd" d="M8.44061 41.6074L9.05932 42.2261L5.28535 46.0001L9.05932 49.7741L8.44061 50.3928L4.04791 46.0001L8.44061 41.6074Z" fill="#4C535C"/>
</svg>
