<svg width="40" height="40" viewBox="0 0 40 40" fill="none" xmlns="http://www.w3.org/2000/svg">
<rect x="9" y="9" width="10" height="10" rx="4" fill="url(#paint0_linear_10376_308599)"/>
<rect x="9" y="21" width="10" height="10" rx="4" fill="url(#paint1_linear_10376_308599)"/>
<rect x="21" y="21" width="10" height="10" rx="5" fill="#7D8DFF"/>
<rect x="21" y="9" width="10" height="10" rx="4" fill="url(#paint2_linear_10376_308599)"/>
<path d="M15.5 14C15.5 14.8284 14.8284 15.5 14 15.5C13.1716 15.5 12.5 14.8284 12.5 14C12.5 13.1716 13.1716 12.5 14 12.5C14.8284 12.5 15.5 13.1716 15.5 14Z" fill="white"/>
<path d="M15.1875 26.1875C15.1875 26.9469 14.5719 27.5625 13.8125 27.5625C13.0531 27.5625 12.4375 26.9469 12.4375 26.1875C12.4375 25.4281 13.0531 24.8125 13.8125 24.8125C14.5719 24.8125 15.1875 25.4281 15.1875 26.1875Z" fill="white"/>
<path d="M27.5 14C27.5 14.8284 26.8284 15.5 26 15.5C25.1716 15.5 24.5 14.8284 24.5 14C24.5 13.1716 25.1716 12.5 26 12.5C26.8284 12.5 27.5 13.1716 27.5 14Z" fill="white"/>
<defs>
<linearGradient id="paint0_linear_10376_308599" x1="14" y1="9" x2="14" y2="19" gradientUnits="userSpaceOnUse">
<stop stop-color="#4175FF"/>
<stop offset="1" stop-color="#6C7BFF"/>
</linearGradient>
<linearGradient id="paint1_linear_10376_308599" x1="14" y1="21" x2="14" y2="31" gradientUnits="userSpaceOnUse">
<stop stop-color="#4175FF"/>
<stop offset="1" stop-color="#6C7BFF"/>
</linearGradient>
<linearGradient id="paint2_linear_10376_308599" x1="26" y1="9" x2="26" y2="19" gradientUnits="userSpaceOnUse">
<stop stop-color="#4175FF"/>
<stop offset="1" stop-color="#6C7BFF"/>
</linearGradient>
</defs>
</svg>
