<svg width="120" height="120" viewBox="0 0 120 120" fill="none" xmlns="http://www.w3.org/2000/svg"><mask id="a" style="mask-type:alpha" maskUnits="userSpaceOnUse" x="0" y="0" width="120" height="120"><path fill-rule="evenodd" clip-rule="evenodd" d="M0 0h120v120H0V0z" fill="#fff"/></mask><g mask="url(#a)"><g filter="url(#filter0_dddi_724_401)"><path d="M96.756 10.726l-80.311 1.8s1.326 57.943 2.588 93.687c.12 3.39 3.222 3.532 3.222 3.532L93 107.933l4-1.72 1.865-3.713-2.11-91.774z" fill="url(#paint0_linear_724_401)"/><path d="M96.756 10.726l-80.311 1.8s1.326 57.943 2.588 93.687c.12 3.39 3.222 3.532 3.222 3.532L93 107.933l4-1.72 1.865-3.713-2.11-91.774z" stroke="#E8E8E8" stroke-width=".5"/></g><path d="M27.3 96.073c.582 9.112-3.395 13.617-5.3 13.927l75-1c8.5 0 9.5-10.5 9.5-14l-79.2 1.073z" fill="url(#paint1_linear_724_401)" filter="url(#filter1_i_724_401)"/><path d="M96.997 108.775l-73.892.985c.25-.167.508-.375.765-.623.652-.629 1.324-1.527 1.914-2.698 1.16-2.304 2.005-5.671 1.756-10.144l78.733-1.067c-.021 1.8-.302 5.101-1.543 7.996-.646 1.509-1.549 2.896-2.801 3.905-1.248 1.006-2.855 1.646-4.929 1.646h-.003z" stroke="#E7E7E7" stroke-width=".451"/><g filter="url(#filter2_ii_724_401)" fill-rule="evenodd" clip-rule="evenodd"><path d="M70.16 47.344L90.235 69.89l-4.482 3.99-15.337-17.225-14.629 18.387L44.78 64.517 34.431 77.221l-4.652-3.79 14.45-17.74 10.956 10.474 14.974-18.821z" fill="#759FFF"/><path d="M70.16 47.344L90.235 69.89l-4.482 3.99-15.337-17.225-14.629 18.387L44.78 64.517 34.431 77.221l-4.652-3.79 14.45-17.74 10.956 10.474 14.974-18.821z" fill="url(#paint2_linear_724_401)" style="mix-blend-mode:soft-light"/></g><g filter="url(#filter3_ii_724_401)" fill-rule="evenodd" clip-rule="evenodd"><path d="M45.5 38a3.5 3.5 0 1 0 0 7 3.5 3.5 0 0 0 0-7zM37 41.5a8.5 8.5 0 1 1 17 0 8.5 8.5 0 0 1-17 0z" fill="#759FFF"/><path d="M45.5 38a3.5 3.5 0 1 0 0 7 3.5 3.5 0 0 0 0-7zM37 41.5a8.5 8.5 0 1 1 17 0 8.5 8.5 0 0 1-17 0z" fill="url(#paint3_linear_724_401)" style="mix-blend-mode:soft-light"/></g></g><defs><filter id="filter0_dddi_724_401" x="8.189" y="4.47" width="98.927" height="116.525" filterUnits="userSpaceOnUse" color-interpolation-filters="sRGB"><feFlood flood-opacity="0" result="BackgroundImageFix"/><feColorMatrix in="SourceAlpha" values="0 0 0 0 0 0 0 0 0 0 0 0 0 0 0 0 0 0 127 0" result="hardAlpha"/><feOffset dy="2"/><feGaussianBlur stdDeviation="4"/><feComposite in2="hardAlpha" operator="out"/><feColorMatrix values="0 0 0 0 0 0 0 0 0 0 0 0 0 0 0 0 0 0 0.04 0"/><feBlend in2="BackgroundImageFix" result="effect1_dropShadow_724_401"/><feColorMatrix in="SourceAlpha" values="0 0 0 0 0 0 0 0 0 0 0 0 0 0 0 0 0 0 127 0" result="hardAlpha"/><feOffset dy="3"/><feGaussianBlur stdDeviation="4"/><feComposite in2="hardAlpha" operator="out"/><feColorMatrix values="0 0 0 0 0 0 0 0 0 0 0 0 0 0 0 0 0 0 0.03 0"/><feBlend in2="effect1_dropShadow_724_401" result="effect2_dropShadow_724_401"/><feColorMatrix in="SourceAlpha" values="0 0 0 0 0 0 0 0 0 0 0 0 0 0 0 0 0 0 127 0" result="hardAlpha"/><feOffset dy="3"/><feGaussianBlur stdDeviation="2.5"/><feComposite in2="hardAlpha" operator="out"/><feColorMatrix values="0 0 0 0 0 0 0 0 0 0 0 0 0 0 0 0 0 0 0.03 0"/><feBlend in2="effect2_dropShadow_724_401" result="effect3_dropShadow_724_401"/><feBlend in="SourceGraphic" in2="effect3_dropShadow_724_401" result="shape"/><feColorMatrix in="SourceAlpha" values="0 0 0 0 0 0 0 0 0 0 0 0 0 0 0 0 0 0 127 0" result="hardAlpha"/><feOffset dy="2.254"/><feGaussianBlur stdDeviation="22.539"/><feComposite in2="hardAlpha" operator="arithmetic" k2="-1" k3="1"/><feColorMatrix values="0 0 0 0 1 0 0 0 0 1 0 0 0 0 1 0 0 0 0.15 0"/><feBlend in2="shape" result="effect4_innerShadow_724_401"/></filter><filter id="filter1_i_724_401" x="22" y="95" width="84.5" height="15" filterUnits="userSpaceOnUse" color-interpolation-filters="sRGB"><feFlood flood-opacity="0" result="BackgroundImageFix"/><feBlend in="SourceGraphic" in2="BackgroundImageFix" result="shape"/><feColorMatrix in="SourceAlpha" values="0 0 0 0 0 0 0 0 0 0 0 0 0 0 0 0 0 0 127 0" result="hardAlpha"/><feOffset dy=".451"/><feComposite in2="hardAlpha" operator="arithmetic" k2="-1" k3="1"/><feColorMatrix values="0 0 0 0 0.970833 0 0 0 0 0.970833 0 0 0 0 0.970833 0 0 0 1 0"/><feBlend in2="shape" result="effect1_innerShadow_724_401"/></filter><filter id="filter2_ii_724_401" x="29.779" y="47.344" width="60.456" height="29.877" filterUnits="userSpaceOnUse" color-interpolation-filters="sRGB"><feFlood flood-opacity="0" result="BackgroundImageFix"/><feBlend in="SourceGraphic" in2="BackgroundImageFix" result="shape"/><feColorMatrix in="SourceAlpha" values="0 0 0 0 0 0 0 0 0 0 0 0 0 0 0 0 0 0 127 0" result="hardAlpha"/><feOffset dx=".3" dy=".3"/><feComposite in2="hardAlpha" operator="arithmetic" k2="-1" k3="1"/><feColorMatrix values="0 0 0 0 0 0 0 0 0 0 0 0 0 0 0 0 0 0 0.1 0"/><feBlend in2="shape" result="effect1_innerShadow_724_401"/><feColorMatrix in="SourceAlpha" values="0 0 0 0 0 0 0 0 0 0 0 0 0 0 0 0 0 0 127 0" result="hardAlpha"/><feOffset dx="-.3" dy="-.3"/><feComposite in2="hardAlpha" operator="arithmetic" k2="-1" k3="1"/><feColorMatrix values="0 0 0 0 1 0 0 0 0 1 0 0 0 0 1 0 0 0 0.15 0"/><feBlend in2="effect1_innerShadow_724_401" result="effect2_innerShadow_724_401"/></filter><filter id="filter3_ii_724_401" x="37" y="33" width="17" height="17" filterUnits="userSpaceOnUse" color-interpolation-filters="sRGB"><feFlood flood-opacity="0" result="BackgroundImageFix"/><feBlend in="SourceGraphic" in2="BackgroundImageFix" result="shape"/><feColorMatrix in="SourceAlpha" values="0 0 0 0 0 0 0 0 0 0 0 0 0 0 0 0 0 0 127 0" result="hardAlpha"/><feOffset dx=".3" dy=".3"/><feComposite in2="hardAlpha" operator="arithmetic" k2="-1" k3="1"/><feColorMatrix values="0 0 0 0 0 0 0 0 0 0 0 0 0 0 0 0 0 0 0.1 0"/><feBlend in2="shape" result="effect1_innerShadow_724_401"/><feColorMatrix in="SourceAlpha" values="0 0 0 0 0 0 0 0 0 0 0 0 0 0 0 0 0 0 127 0" result="hardAlpha"/><feOffset dx="-.3" dy="-.3"/><feComposite in2="hardAlpha" operator="arithmetic" k2="-1" k3="1"/><feColorMatrix values="0 0 0 0 1 0 0 0 0 1 0 0 0 0 1 0 0 0 0.15 0"/><feBlend in2="effect1_innerShadow_724_401" result="effect2_innerShadow_724_401"/></filter><linearGradient id="paint0_linear_724_401" x1="53.344" y1="-5.667" x2="54.5" y2="113" gradientUnits="userSpaceOnUse"><stop stop-color="#F5F5F5"/><stop offset=".54" stop-color="#fff"/><stop offset="1" stop-color="#FAFAFA"/></linearGradient><linearGradient id="paint1_linear_724_401" x1="65.508" y1="96.126" x2="66.052" y2="134.733" gradientUnits="userSpaceOnUse"><stop stop-color="#fff"/><stop offset=".215" stop-color="#EFEFEF"/><stop offset=".478" stop-color="#fff"/></linearGradient><linearGradient id="paint2_linear_724_401" x1="60.111" y1="49.125" x2="60.014" y2="80.636" gradientUnits="userSpaceOnUse"><stop stop-color="#fff" stop-opacity="0"/><stop offset=".481" stop-color="#fff" stop-opacity=".12"/><stop offset="1" stop-color="#fff" stop-opacity="0"/></linearGradient><linearGradient id="paint3_linear_724_401" x1="45.529" y1="34.013" x2="45.418" y2="51.943" gradientUnits="userSpaceOnUse"><stop stop-color="#fff" stop-opacity="0"/><stop offset=".481" stop-color="#fff" stop-opacity=".12"/><stop offset="1" stop-color="#fff" stop-opacity="0"/></linearGradient></defs></svg>